<?xml version="1.0" encoding="UTF-8"?>
<svg version="1.1" xmlns="http://www.w3.org/2000/svg" width="512" height="512">
<path d="M0 0 C-1.69327195 5.21077447 -3.48997777 10.3613042 -5.44799805 15.47827148 C-30.16592407 80.43175967 -28.65644494 152.83070519 -0.91796875 216.671875 C0 219 0 219 0 221 C1.093125 220.67 2.18625 220.34 3.3125 220 C13.03157489 217.61736965 22.56882853 218.56587931 31.4140625 223.2890625 C40.47125232 228.95359259 46.27531616 236.60820923 49.25 246.875 C51.37563713 256.82684657 50.0917378 267.51199586 44.5859375 276.2421875 C43.89371094 277.14324219 43.89371094 277.14324219 43.1875 278.0625 C40.74755592 280.65615503 40.74755592 280.65615503 41.18066406 282.96679688 C42.11724623 285.29094952 43.2042981 286.6477293 44.921875 288.46875 C45.52845947 289.11626221 46.13504395 289.76377441 46.76000977 290.4309082 C47.41670654 291.1137085 48.07340332 291.79650879 48.75 292.5 C49.42667725 293.21051514 50.10335449 293.92103027 50.80053711 294.65307617 C74.75052281 319.57843871 103.46029994 339.77480499 135 354 C135.66 354 136.32 354 137 354 C137.50789063 352.9378125 138.01578125 351.875625 138.5390625 350.78125 C142.13904792 343.35386544 145.62812287 336.3311409 151 330 C151.59554688 329.20722656 152.19109375 328.41445313 152.8046875 327.59765625 C164.42416373 313.84863188 182.50161088 306.15190546 200 304 C221.94229055 302.7034101 241.35694958 308.87772858 258.125 323.1875 C269.91286643 334.28416032 278.61218529 348.81592254 281 365 C281.02139624 366.66652932 281.02590361 368.33353464 281 370 C281.58265625 369.77908691 282.1653125 369.55817383 282.765625 369.33056641 C289.78806335 366.91660323 295.66146267 366.96004488 303 367.375 C320.11850151 367.89422948 334.95383279 361.84172224 350.25561523 354.70800781 C352 354 352 354 354 354 C353.40708639 357.73431555 352.34637633 360.61298848 350.56640625 363.94140625 C350.08236328 364.85470703 349.59832031 365.76800781 349.09960938 366.70898438 C348.59236328 367.65064453 348.08511719 368.59230469 347.5625 369.5625 C346.56364163 371.43871667 345.5649378 373.31501562 344.56640625 375.19140625 C344.12240479 376.01842041 343.67840332 376.84543457 343.22094727 377.69750977 C342.11475477 379.78359283 341.04581457 381.8831302 340 384 C340.44730469 384.52207031 340.89460938 385.04414063 341.35546875 385.58203125 C352.58745662 399.25679686 355.39284119 413.72876928 354 431 C351.50368291 444.95668194 343.65407682 457.31488664 332.25 465.6875 C319.27130778 474.30063211 307.48351545 476.30694061 292.12890625 476.0625 C290.11515888 476.05584749 288.1014092 476.0492606 286.08765316 476.04620361 C281.18218827 476.03856677 276.27801641 476.01777462 271.37329102 475.92822266 C254.64982491 475.64077767 241.25218983 476.31178981 226.89328003 485.80688477 C222.43160194 488.61856398 217.40296792 490.36151953 212.5 492.25 C211.44449951 492.6627417 210.38899902 493.0754834 209.30151367 493.50073242 C177.7218357 505.68682345 144.82566458 512.21987764 110.9375 512.25 C110.245354 512.25067474 109.55320801 512.25134949 108.84008789 512.25204468 C42.46975361 512.15053488 -22.77626588 487.05059238 -71.25 441.5625 C-73.72679294 439.25457931 -76.25228742 437.02673791 -78.8125 434.8125 C-82.14839609 431.85189222 -85.13488266 428.77240306 -88.0078125 425.36328125 C-89.5419478 423.54337564 -91.09708884 421.75745061 -92.6796875 419.98046875 C-140.35220256 366.06409195 -161.89511437 294.56941464 -157.7890625 223.34082031 C-153.75578192 168.75403429 -132.55993379 116.3249822 -98 74 C-97.56042969 73.45891602 -97.12085938 72.91783203 -96.66796875 72.36035156 C-85.45018557 58.63831679 -73.07405339 45.80576813 -59 35 C-57.99839844 34.20464844 -56.99679688 33.40929688 -55.96484375 32.58984375 C-42.47418957 21.92907802 -28.16636597 13.07554902 -13 5 C-11.38738281 4.13955078 -11.38738281 4.13955078 -9.7421875 3.26171875 C-3.43926056 0 -3.43926056 0 0 0 Z " fill="#AED5EB" transform="translate(158,0)"/>
<path d="M0 0 C14.52870439 11.35602045 25.27662132 27.54154453 28 46 C28.02139624 47.66652932 28.02590361 49.33353464 28 51 C28.58265625 50.77908691 29.1653125 50.55817383 29.765625 50.33056641 C36.78806335 47.91660323 42.66146267 47.96004488 50 48.375 C67.11850151 48.89422948 81.95383279 42.84172224 97.25561523 35.70800781 C99 35 99 35 101 35 C100.40708639 38.73431555 99.34637633 41.61298848 97.56640625 44.94140625 C96.8403418 46.31135742 96.8403418 46.31135742 96.09960938 47.70898438 C95.59236328 48.65064453 95.08511719 49.59230469 94.5625 50.5625 C93.56364163 52.43871667 92.5649378 54.31501562 91.56640625 56.19140625 C91.12240479 57.01842041 90.67840332 57.84543457 90.22094727 58.69750977 C89.11475477 60.78359283 88.04581457 62.8831302 87 65 C87.44730469 65.52207031 87.89460937 66.04414063 88.35546875 66.58203125 C99.58745662 80.25679686 102.39284119 94.72876928 101 112 C98.50368291 125.95668194 90.65407682 138.31488664 79.25 146.6875 C67.68276459 154.36393805 56.46457489 157.3368595 42.6875 157.23046875 C41.14214317 157.23080109 41.14214317 157.23080109 39.56556702 157.23114014 C36.04357899 157.22812464 32.52192188 157.2089472 29 157.1875 C26.43807038 157.1757048 23.87614 157.16407423 21.31420898 157.15258789 C16.91512814 157.1319063 12.51608522 157.10833941 8.11705017 157.07945251 C-3.08847408 157.00855946 -14.29319263 156.99768252 -25.49892616 157.0098753 C-35.75039474 157.0193696 -46.00162901 157.00097648 -56.25304222 156.96671772 C-62.73354101 156.94600242 -69.21357786 156.93717184 -75.6940918 156.95614624 C-81.90387696 156.97359696 -88.11272144 156.95704123 -94.3223896 156.91651154 C-96.63668719 156.90718989 -98.95106858 156.90977608 -101.26533318 156.92525482 C-117.70407776 157.02528869 -128.73585914 155.64198721 -141.4375 144.4375 C-152.05814397 133.01066853 -154.67353339 120.1699103 -154.13623047 105.02197266 C-153.43229349 94.57393309 -147.54041042 84.11421331 -140 77 C-133.73205953 71.99810049 -127.26598318 67 -119 67 C-119.05220703 65.42025391 -119.05220703 65.42025391 -119.10546875 63.80859375 C-119.57030704 43.91119076 -115.05133984 26.38193624 -102 11 C-101.40445313 10.20722656 -100.80890625 9.41445313 -100.1953125 8.59765625 C-75.29872737 -20.86182615 -29.77978308 -21.67793033 0 0 Z " fill="#E6F2FE" transform="translate(411,319)"/>
<path d="M0 0 C8.9528294 7.76272519 15.21880038 15.43884767 18.3984375 26.9921875 C18.3984375 27.6521875 18.3984375 28.3121875 18.3984375 28.9921875 C20.038125 28.4971875 20.038125 28.4971875 21.7109375 27.9921875 C31.43001239 25.60955715 40.96726603 26.55806681 49.8125 31.28125 C58.86968982 36.94578009 64.67375366 44.60039673 67.6484375 54.8671875 C69.86380798 65.23914931 67.92173417 74.83737004 63.25390625 84.31640625 C57.51064439 93.1481896 46.40902042 98.54680033 36.3984375 100.9921875 C32.52632008 101.40622763 28.68687855 101.42301321 24.79516602 101.41210938 C23.66874695 101.42057892 22.54232788 101.42904846 21.3817749 101.43777466 C17.68018114 101.46106057 13.97900503 101.46216885 10.27734375 101.4609375 C7.69099259 101.4680435 5.104643 101.47574315 2.51829529 101.48400879 C-2.89418568 101.4974339 -8.30650489 101.4992133 -13.71899414 101.49316406 C-19.9534288 101.48652386 -26.18727174 101.50940009 -32.42158645 101.54647779 C-38.44710454 101.58099785 -44.47231064 101.58750207 -50.49794197 101.58338928 C-53.04912136 101.58507797 -55.60030873 101.59469608 -58.15142632 101.61253357 C-61.72438871 101.63477024 -65.29593722 101.62499579 -68.86889648 101.60742188 C-69.91284073 101.62068512 -70.95678497 101.63394836 -72.03236389 101.64761353 C-80.90795971 101.54663386 -88.664494 98.69207409 -94.9765625 92.2421875 C-101.20073567 85.59049537 -104.04634236 77.37802031 -103.875 68.296875 C-102.83737345 59.55116547 -98.84408579 52.99297298 -92.6015625 46.9921875 C-91.8178125 46.2290625 -91.0340625 45.4659375 -90.2265625 44.6796875 C-86.58655911 42.33968532 -82.74006834 41.18234604 -78.6015625 39.9921875 C-78.64796875 39.40953125 -78.694375 38.826875 -78.7421875 38.2265625 C-79.30884668 25.35530393 -73.92277295 13.93785029 -65.34765625 4.515625 C-47.331781 -12.7773018 -20.18488931 -15.57812779 0 0 Z " fill="#E6F1FE" transform="translate(139.6015625,192.0078125)"/>
<path d="M0 0 C0.66 0 1.32 0 2 0 C2.43755615 0.79470703 2.8751123 1.58941406 3.32592773 2.40820312 C4.9921297 5.4336002 6.65892484 8.45866879 8.32617188 11.48348999 C9.06480287 12.82373933 9.80324804 14.16409111 10.54150391 15.50454712 C15.16952493 23.90666397 19.80246492 32.3047631 24.61108398 40.60546875 C27 44.78384608 27 44.78384608 27 47 C27.69875244 47.26409668 28.39750488 47.52819336 29.11743164 47.80029297 C32.23225388 49.09666262 35.14752739 50.60128706 38.12109375 52.1953125 C38.69849808 52.50422928 39.2759024 52.81314606 39.87080383 53.13142395 C41.72794866 54.12637141 43.58283145 55.1254452 45.4375 56.125 C46.70670287 56.80672732 47.97590861 57.48844932 49.24511719 58.17016602 C57.57183086 62.65091512 65.84942468 67.20464272 74 72 C72.70371681 75.88884956 71.42490921 76.13248538 67.84765625 78.00390625 C66.76871094 78.57544434 65.68976563 79.14698242 64.578125 79.73583984 C63.41796875 80.3386377 62.2578125 80.94143555 61.0625 81.5625 C59.28290987 82.49943287 57.50503775 83.43956915 55.7272644 84.37994385 C54.53491467 85.01040037 53.34197979 85.63975147 52.14846802 86.26800537 C46.11900843 89.44681377 40.17748913 92.77615207 34.25805664 96.15454102 C29.21281807 99 29.21281807 99 27 99 C26.79375 99.76828125 26.5875 100.5365625 26.375 101.328125 C24.45467301 106.45627093 21.73550338 111.01711391 19 115.75 C17.82605433 117.79903902 16.65288719 119.84852425 15.48046875 121.8984375 C14.60334229 123.42936035 14.60334229 123.42936035 13.70849609 124.99121094 C12.10981219 127.80661255 10.54105204 130.63563265 8.98828125 133.4765625 C8.30668945 134.72228027 8.30668945 134.72228027 7.61132812 135.99316406 C6.76086221 137.55277788 5.91435002 139.11455576 5.07226562 140.67871094 C2.2200362 145.8899819 2.2200362 145.8899819 0 147 C-0.32572998 146.39341553 -0.65145996 145.78683105 -0.98706055 145.16186523 C-1.44894775 144.30278564 -1.91083496 143.44370605 -2.38671875 142.55859375 C-2.90508301 141.5936499 -3.42344727 140.62870605 -3.95751953 139.63452148 C-5.12683333 137.47361771 -6.30649121 135.31828432 -7.49560547 133.16821289 C-10.46563519 127.78684478 -13.30678439 122.42869609 -15.80859375 116.8125 C-23.39939557 100.51681012 -33.59259631 94.13557355 -49.61230469 86.62255859 C-54.76168448 84.15622982 -59.71345757 81.36105407 -64.6875 78.5625 C-66.31526469 77.66589316 -67.94404476 76.77112512 -69.57421875 75.87890625 C-70.70472656 75.25886719 -71.83523438 74.63882813 -73 74 C-70.09697731 70.83621908 -67.27703013 68.85793457 -63.484375 66.86328125 C-62.40478516 66.28980957 -61.32519531 65.71633789 -60.21289062 65.12548828 C-59.07013672 64.52720215 -57.92738281 63.92891602 -56.75 63.3125 C-54.40035197 62.06770724 -52.05139255 60.82161379 -49.703125 59.57421875 C-47.98706055 58.66422119 -47.98706055 58.66422119 -46.23632812 57.73583984 C-41.28599116 55.08067269 -36.4026891 52.31170752 -31.54589844 49.48950195 C-27.20892082 47 -27.20892082 47 -25 47 C-24.74114014 46.14422363 -24.48228027 45.28844727 -24.21557617 44.40673828 C-22.95034937 40.86085061 -21.37887443 37.78165411 -19.55078125 34.4921875 C-19.04722359 33.5820842 -19.04722359 33.5820842 -18.53349304 32.65359497 C-17.46452072 30.72474767 -16.38849798 28.79993496 -15.3125 26.875 C-14.60959295 25.60701082 -13.90711562 24.33878332 -13.20507812 23.0703125 C-11.48774651 19.97314393 -9.75588985 16.88447779 -8.01470947 13.80065918 C-7.33545016 12.59527523 -6.65899639 11.38830619 -5.98529053 10.17980957 C-5.03271213 8.4725153 -4.06933787 6.77125801 -3.10546875 5.0703125 C-2.5539917 4.09078613 -2.00251465 3.11125977 -1.43432617 2.10205078 C-0.96099854 1.40837402 -0.4876709 0.71469727 0 0 Z " fill="#F9C05C" transform="translate(438,0)"/>
<path d="M0 0 C2.49764942 2.25432799 3.88010767 4.4410407 5.34765625 7.45703125 C11.92474989 20.90858551 11.92474989 20.90858551 24 29 C26.57358783 30.40377518 29.09570369 31.89328656 31.625 33.375 C32.84523395 34.07227654 34.06649575 34.7677593 35.2890625 35.4609375 C36.63097656 36.22277344 36.63097656 36.22277344 38 37 C35.10791897 39.62916457 32.37202218 41.36239288 28.77734375 42.8046875 C13.82973929 49.03915425 8.27045572 58.41549787 2 73 C1.01 73 0.02 73 -1 73 C-1.24830566 72.39639648 -1.49661133 71.79279297 -1.75244141 71.17089844 C-8.79768536 54.75181812 -16.52479887 46.92199974 -33.05737305 40.09301758 C-35 39 -35 39 -36 36 C-32.37871557 33.99321599 -28.75238357 31.9957352 -25.125 30 C-24.09246094 29.42765625 -23.05992187 28.8553125 -21.99609375 28.265625 C-21.00996094 27.72421875 -20.02382813 27.1828125 -19.0078125 26.625 C-17.64100342 25.87089844 -17.64100342 25.87089844 -16.24658203 25.1015625 C-14 24 -14 24 -12 24 C-11.77570313 23.20335937 -11.55140625 22.40671875 -11.3203125 21.5859375 C-9.62416353 16.97923704 -7.29929908 12.88280259 -4.875 8.625 C-4.17310547 7.37783203 -4.17310547 7.37783203 -3.45703125 6.10546875 C-2.30929451 4.06765046 -1.15686718 2.03264431 0 0 Z " fill="#F49106" transform="translate(292,109)"/>
<path d="M0 0 C0.66 0 1.32 0 2 0 C3.02650643 1.84950721 3.99520786 3.73120015 4.9375 5.625 C8.6850086 12.34193279 13.00276414 15.1150637 20 18 C16.89721434 21.25053735 14.14709378 23.19691575 10 25 C9.34 25 8.68 25 8 25 C7.7525 25.680625 7.505 26.36125 7.25 27.0625 C5.75802092 30.56865083 3.93164489 33.71620368 2 37 C-1.77256533 35.74247822 -1.83103727 34.77025692 -3.5625 31.3125 C-6.50396925 26.09976968 -9.72213067 23.87328352 -15.0234375 21.25390625 C-15.67570312 20.84011719 -16.32796875 20.42632812 -17 20 C-17 19.01 -17 18.02 -17 17 C-15.54462432 16.16151196 -14.08559627 15.32936066 -12.625 14.5 C-11.81289063 14.0359375 -11.00078125 13.571875 -10.1640625 13.09375 C-8 12 -8 12 -6 12 C-5.7525 11.319375 -5.505 10.63875 -5.25 9.9375 C-3.75802092 6.43134917 -1.93164489 3.28379632 0 0 Z " fill="#F49206" transform="translate(438,219)"/>
<path d="M0 0 C-0.93343111 5.80564395 -3.58797224 10.4130368 -6.3125 15.5625 C-6.79912109 16.50802734 -7.28574219 17.45355469 -7.78710938 18.42773438 C-8.26599609 19.33974609 -8.74488281 20.25175781 -9.23828125 21.19140625 C-9.67180908 22.01842041 -10.10533691 22.84543457 -10.55200195 23.69750977 C-12.10733379 26.17067358 -13.86628829 28.01566237 -16 30 C-16.46148437 29.55269531 -16.92296875 29.10539062 -17.3984375 28.64453125 C-22.51073319 23.90605955 -27.64462361 20.81202229 -34 18 C-34.72316406 17.67902344 -35.44632812 17.35804688 -36.19140625 17.02734375 C-37.78690438 16.33434961 -39.3922486 15.66407123 -41 15 C-37.83490445 13.31402235 -34.63412962 12.12231292 -31.23828125 10.9765625 C-30.11873047 10.595 -28.99917969 10.2134375 -27.84570312 9.8203125 C-25.51013114 9.03016875 -23.17419941 8.24108749 -20.83789062 7.453125 C-14.98370614 5.45593327 -9.28377244 3.37322497 -3.69604492 0.71240234 C-2 0 -2 0 0 0 Z " fill="#9FCCED" transform="translate(512,354)"/>
</svg>
