<?xml version="1.0" encoding="UTF-8"?>
<svg version="1.1" xmlns="http://www.w3.org/2000/svg" width="512" height="512">
<path d="M0 0 C-0.18175781 0.64324219 -0.36351562 1.28648438 -0.55078125 1.94921875 C-10.85394266 38.98776311 -9.88167941 76.408545 8.80981445 110.63891602 C17.38785361 125.6744655 28.2115485 138.48605915 42 149 C42.76699219 149.59425781 43.53398437 150.18851563 44.32421875 150.80078125 C72.27897851 171.44648668 104.27878904 175.71320088 138 173 C137.44384669 178.06021179 135.74019658 182.14633097 133.4375 186.625 C132.89851074 187.68050049 132.89851074 187.68050049 132.34863281 188.75732422 C121.67458211 209.27107843 105.88003256 227.00886925 86 239 C89.36072632 240.83237645 92.79463994 241.90885873 96.4375 243.0625 C112.97347245 248.90176527 124.50788049 260.40974184 132.48046875 275.87109375 C139.27584064 290.23902083 140.85276681 307.98956147 136.3125 323.375 C135.59215966 325.26997198 134.82460493 327.14801843 134 329 C133.63777344 329.87269531 133.27554687 330.74539063 132.90234375 331.64453125 C125.74157889 347.44676151 112.63759762 358.24148239 97 365 C89.33824602 367.75675624 82.09915868 368.4304671 74 368 C73.91242432 368.82508057 73.82484863 369.65016113 73.73461914 370.50024414 C72.84372659 374.74449296 71.20623914 378.15284234 69.24609375 381.99609375 C68.86695328 382.74786392 68.48781281 383.49963409 68.09718323 384.27418518 C67.29369649 385.8589278 66.48573525 387.44140879 65.67358398 389.02172852 C64.44770901 391.41754776 63.24986776 393.82604701 62.05273438 396.23632812 C53.9605686 412.24301711 53.9605686 412.24301711 47 416 C41.50534614 417.41732514 36.5303553 416.72490514 31.4375 414.3125 C27.29562982 410.38303342 27.29562982 410.38303342 26 407 C26 396 26 396 40 369 C-1.58 368.67 -43.16 368.34 -86 368 C-86.33 369.98 -86.66 371.96 -87 374 C-87.74977112 376.00315857 -87.74977112 376.00315857 -88.63891602 377.78295898 C-88.97339249 378.46063828 -89.30786896 379.13831757 -89.65248108 379.83653259 C-90.19768654 380.90551537 -90.19768654 380.90551537 -90.75390625 381.99609375 C-91.13304672 382.74786392 -91.51218719 383.49963409 -91.90281677 384.27418518 C-92.70630351 385.8589278 -93.51426475 387.44140879 -94.32641602 389.02172852 C-95.55229099 391.41754776 -96.75013224 393.82604701 -97.94726562 396.23632812 C-106.0394314 412.24301711 -106.0394314 412.24301711 -113 416 C-118.49465386 417.41732514 -123.4696447 416.72490514 -128.5625 414.3125 C-132.58860575 410.49286121 -134.18152333 407.82804853 -134.5390625 402.265625 C-134.45511464 394.17398436 -130.31588622 387.69219285 -126.5 380.8125 C-125.77525625 379.4666168 -125.05258208 378.11961701 -124.33203125 376.77148438 C-122.57835232 373.50110947 -120.79718147 370.24671666 -119 367 C-119.80244141 366.67531738 -120.60488281 366.35063477 -121.43164062 366.01611328 C-123.02782227 365.36231689 -123.02782227 365.36231689 -124.65625 364.6953125 C-126.23116211 364.05360107 -126.23116211 364.05360107 -127.83789062 363.39892578 C-133.14396514 361.051504 -138.40615163 358.1986371 -142.84844589 354.43319225 C-145.35003006 352.76683813 -146.60693842 352.62886141 -149.58111572 352.63923645 C-150.49534302 352.63511246 -151.40957031 352.63098846 -152.35150146 352.6267395 C-153.84474945 352.64291824 -153.84474945 352.64291824 -155.36816406 352.65942383 C-156.42213379 352.65898575 -157.47610352 352.65854767 -158.56201172 352.65809631 C-162.04673772 352.66018681 -165.53098301 352.68353079 -169.015625 352.70703125 C-171.43129208 352.71262626 -173.84696257 352.71689681 -176.26263428 352.71989441 C-182.62163689 352.73135058 -188.98043405 352.76082469 -195.33935547 352.79400635 C-201.82777121 352.82469042 -208.31622013 352.83839621 -214.8046875 352.85351562 C-227.53654601 352.8856934 -240.26826208 352.9363229 -253 353 C-252.20118408 353.61949524 -251.40236816 354.23899048 -250.5793457 354.8772583 C-247.45606673 357.44764446 -246.41446842 359.26856609 -245.48828125 363.13769531 C-244.80649157 372.60320865 -249.37277308 380.14612691 -253.67822266 388.25341797 C-254.99695682 390.74425203 -256.27178108 393.25416066 -257.54296875 395.76953125 C-266.04947024 412.30016227 -266.04947024 412.30016227 -273 416 C-278.49465386 417.41732514 -283.4696447 416.72490514 -288.5625 414.3125 C-292.47662572 410.59909868 -294.18201059 407.90063785 -294.640625 402.4921875 C-294.54478736 394.04944663 -290.09823085 386.96026385 -286.21191406 379.69165039 C-284.87534692 377.18814981 -283.57613397 374.66784712 -282.28125 372.14257812 C-281.43702351 370.52492949 -280.5907378 368.9083535 -279.7421875 367.29296875 C-279.35755341 366.54911423 -278.97291931 365.8052597 -278.57662964 365.03886414 C-275.96647922 360.19690263 -273.05578096 356.72286558 -269 353 C-270.8871875 352.87044922 -270.8871875 352.87044922 -272.8125 352.73828125 C-297.43826243 350.81571608 -319.24053086 342.1332313 -336.46484375 323.80859375 C-354.38780599 302.69324638 -359.5755 278.11871282 -358 251 C-357.3188536 245.44150898 -355.85164673 240.2869387 -354 235 C-353.649375 233.96359375 -353.29875 232.9271875 -352.9375 231.859375 C-344.49718712 209.46910055 -327.40863906 192.75335841 -305.95703125 182.7265625 C-296.47514843 178.48943936 -287.3747686 176.37386553 -277 176 C-276.95875 174.72125 -276.9175 173.4425 -276.875 172.125 C-274.93105368 153.27138367 -264.99342352 134.31410222 -253 120 C-252.15566406 118.99195312 -251.31132812 117.98390625 -250.44140625 116.9453125 C-235.95653385 100.18105419 -217.13969759 89.22671505 -196 83 C-194.89398438 82.6596875 -193.78796875 82.319375 -192.6484375 81.96875 C-173.85348648 77.2149919 -151.43058805 78.02619815 -133 84 C-132.3184082 84.21430664 -131.63681641 84.42861328 -130.93457031 84.64941406 C-119.75478721 88.25021621 -109.77302956 93.48464696 -100 100 C-99.88785156 99.08734375 -99.88785156 99.08734375 -99.7734375 98.15625 C-96.15194734 74.01298229 -82.62864523 52.36835365 -66 35 C-65.31679688 34.25363281 -64.63359375 33.50726563 -63.9296875 32.73828125 C-49.72652603 17.72276183 -21.73510346 -1.64528672 0 0 Z " fill="#79828A" transform="translate(366,8)"/>
<path d="M0 0 C-0.18175781 0.64324219 -0.36351562 1.28648438 -0.55078125 1.94921875 C-10.85394266 38.98776311 -9.88167941 76.408545 8.80981445 110.63891602 C17.38785361 125.6744655 28.2115485 138.48605915 42 149 C42.76699219 149.59425781 43.53398437 150.18851563 44.32421875 150.80078125 C72.27897851 171.44648668 104.27878904 175.71320088 138 173 C137.44384669 178.06021179 135.74019658 182.14633097 133.4375 186.625 C132.89851074 187.68050049 132.89851074 187.68050049 132.34863281 188.75732422 C121.67458211 209.27107843 105.88003256 227.00886925 86 239 C89.36072632 240.83237645 92.79463994 241.90885873 96.4375 243.0625 C112.97347245 248.90176527 124.50788049 260.40974184 132.48046875 275.87109375 C136.91322824 285.24358522 138.39037444 293.38338814 138.375 303.6875 C138.37411377 304.74952637 138.37322754 305.81155273 138.37231445 306.90576172 C138.25187054 314.89908017 137.32065064 321.647924 134 329 C133.54238281 330.04542969 133.08476562 331.09085937 132.61328125 332.16796875 C129.22872211 338.10938613 122.62116026 339.96842746 116.3125 341.75 C109.86955087 343.39175889 103.7059626 344.14932128 97.05911255 344.15390015 C96.27714945 344.1582824 95.49518635 344.16266465 94.68952739 344.1671797 C92.07833471 344.18049688 89.46717573 344.18673064 86.85595703 344.19287109 C84.97957713 344.20077787 83.10319873 344.20904718 81.2268219 344.21765137 C75.07050008 344.24381271 68.91417168 344.25917674 62.7578125 344.2734375 C60.63275016 344.27880028 58.50768785 344.28417779 56.38262558 344.28956985 C47.53641663 344.31119314 38.69020946 344.32992597 29.84398079 344.34119225 C17.19891669 344.35740629 4.55416104 344.39052873 -8.09078681 344.44759309 C-16.99893971 344.48641182 -25.90701054 344.50583923 -34.81524575 344.51111281 C-40.12660356 344.51475094 -45.43763193 344.52660724 -50.74889755 344.55921555 C-55.7542689 344.58950541 -60.7591151 344.5955341 -65.76455879 344.58383179 C-67.58972835 344.58361277 -69.41492378 344.59177347 -71.2400074 344.60948563 C-91.74794893 344.79748531 -109.28758881 339.51331771 -124.26953125 324.859375 C-135.33976588 313.26651127 -141.95513201 298.33276952 -142.375 282.25 C-142.09509585 271.23638037 -140.88407405 256.96198581 -134 248 C-130.53980076 245.56651561 -127.01950405 244.25675786 -123 243 C-121.62714844 242.52626953 -121.62714844 242.52626953 -120.2265625 242.04296875 C-113.75089218 240.01120399 -107.75442269 239.64725452 -101 240 C-101.0309375 238.99839844 -101.061875 237.99679688 -101.09375 236.96484375 C-100.65391458 218.36347075 -90.7489087 201.75577038 -79 188 C-78.43925781 187.33742187 -77.87851562 186.67484375 -77.30078125 185.9921875 C-71.81425811 180.04960576 -64.77052302 175.36439681 -58 171 C-57.34 171 -56.68 171 -56 171 C-62.28043372 146.35166465 -74.47231504 120.03353975 -96.25 105.3125 C-96.99765625 104.87550781 -97.7453125 104.43851562 -98.515625 103.98828125 C-100.32714035 101.56180411 -100.15735057 100.78157698 -99.89453125 97.828125 C-99.16109343 93.21867853 -97.94941111 88.84707646 -96.4375 84.4375 C-96.17356445 83.66374023 -95.90962891 82.88998047 -95.63769531 82.09277344 C-89.25356934 64.00318642 -79.23670739 48.82552889 -66 35 C-65.31679688 34.25363281 -64.63359375 33.50726563 -63.9296875 32.73828125 C-49.72652603 17.72276183 -21.73510346 -1.64528672 0 0 Z " fill="#7A838A" transform="translate(366,8)"/>
<path d="M0 0 C0.50512244 1.60256108 1.00391627 3.20711792 1.5 4.8125 C1.91765625 6.15248047 1.91765625 6.15248047 2.34375 7.51953125 C3 10 3 10 3 13 C0.796875 14.65625 0.796875 14.65625 -2.25 16.5 C-20.72279236 28.45298329 -34.38906616 45.76248974 -39.31640625 67.4609375 C-40.3290424 72.28893627 -41.19714923 77.13302885 -42 82 C-42.6803833 82.02545898 -43.3607666 82.05091797 -44.06176758 82.07714844 C-52.86914821 82.47576024 -60.7267604 85.19566007 -69 88 C-70.10730469 88.25910156 -71.21460938 88.51820313 -72.35546875 88.78515625 C-75.25240717 89.76741887 -75.25240717 89.76741887 -76.24609375 92.7265625 C-76.49488281 93.80679688 -76.74367187 94.88703125 -77 96 C-77.34160156 97.03898437 -77.68320313 98.07796875 -78.03515625 99.1484375 C-79.93066262 105.10162481 -81.72168253 110.74342321 -82 117 C-82.06316406 118.01320313 -82.12632812 119.02640625 -82.19140625 120.0703125 C-82.78299132 137.13086266 -77.1204275 152.6595974 -65.75 165.375 C-55.38975373 176.39320904 -40.2667936 184.27638484 -25.0377779 185.25447559 C-23.62470773 185.26659147 -22.21151871 185.26812643 -20.79841614 185.26069641 C-19.61973316 185.26643473 -19.61973316 185.26643473 -18.41723841 185.27228898 C-15.80518891 185.28254166 -13.19336242 185.2786416 -10.58129883 185.2746582 C-8.69975584 185.27900907 -6.81821463 185.28419347 -4.93667603 185.29014587 C0.16068803 185.30350964 5.25797782 185.30411725 10.35535598 185.30158257 C14.61936133 185.30051066 18.88335179 185.3054021 23.14735395 185.310188 C33.21421415 185.32127504 43.28103704 185.3217257 53.34790039 185.31567383 C63.70999689 185.30963986 74.07195741 185.32193226 84.43403071 185.3432439 C93.34897987 185.36090058 102.26388592 185.36685468 111.1788519 185.36360615 C116.49501163 185.36179896 121.81107445 185.36437261 127.12721825 185.37832069 C132.13170623 185.39095998 137.13598359 185.38889755 142.1404686 185.37590981 C143.96849325 185.37355736 145.79653301 185.37623044 147.62454033 185.38453293 C160.9580207 185.4406837 172.7431375 184.24205246 185.07421875 178.671875 C185.70972656 178.45015625 186.34523438 178.2284375 187 178 C187.66 178.33 188.32 178.66 189 179 C178.71514266 194.36982871 165.27049594 205.68924203 146.875 209.61328125 C142.23570098 210.2373174 137.66805375 210.24810522 133 210 C132.91242432 210.82508057 132.82484863 211.65016113 132.73461914 212.50024414 C131.84372659 216.74449296 130.20623914 220.15284234 128.24609375 223.99609375 C127.86695328 224.74786392 127.48781281 225.49963409 127.09718323 226.27418518 C126.29369649 227.8589278 125.48573525 229.44140879 124.67358398 231.02172852 C123.44770901 233.41754776 122.24986776 235.82604701 121.05273438 238.23632812 C112.9605686 254.24301711 112.9605686 254.24301711 106 258 C100.50534614 259.41732514 95.5303553 258.72490514 90.4375 256.3125 C86.29562982 252.38303342 86.29562982 252.38303342 85 249 C85 238 85 238 99 211 C57.42 210.67 15.84 210.34 -27 210 C-27.33 211.98 -27.66 213.96 -28 216 C-28.74977112 218.00315857 -28.74977112 218.00315857 -29.63891602 219.78295898 C-29.97339249 220.46063828 -30.30786896 221.13831757 -30.65248108 221.83653259 C-31.19768654 222.90551537 -31.19768654 222.90551537 -31.75390625 223.99609375 C-32.13304672 224.74786392 -32.51218719 225.49963409 -32.90281677 226.27418518 C-33.70630351 227.8589278 -34.51426475 229.44140879 -35.32641602 231.02172852 C-36.55229099 233.41754776 -37.75013224 235.82604701 -38.94726562 238.23632812 C-47.0394314 254.24301711 -47.0394314 254.24301711 -54 258 C-59.49465386 259.41732514 -64.4696447 258.72490514 -69.5625 256.3125 C-73.58860575 252.49286121 -75.18152333 249.82804853 -75.5390625 244.265625 C-75.45511464 236.17398436 -71.31588622 229.69219285 -67.5 222.8125 C-66.77525625 221.4666168 -66.05258208 220.11961701 -65.33203125 218.77148438 C-63.57835232 215.50110947 -61.79718147 212.24671666 -60 209 C-61.20366211 208.51297607 -61.20366211 208.51297607 -62.43164062 208.01611328 C-63.49576172 207.58024902 -64.55988281 207.14438477 -65.65625 206.6953125 C-66.70619141 206.26750488 -67.75613281 205.83969727 -68.83789062 205.39892578 C-74.14396514 203.051504 -79.40615163 200.1986371 -83.84844589 196.43319225 C-86.35003006 194.76683813 -87.60693842 194.62886141 -90.58111572 194.63923645 C-91.49534302 194.63511246 -92.40957031 194.63098846 -93.35150146 194.6267395 C-94.34700012 194.63752533 -95.34249878 194.64831116 -96.36816406 194.65942383 C-97.42213379 194.65898575 -98.47610352 194.65854767 -99.56201172 194.65809631 C-103.04673772 194.66018681 -106.53098301 194.68353079 -110.015625 194.70703125 C-112.43129208 194.71262626 -114.84696257 194.71689681 -117.26263428 194.71989441 C-123.62163689 194.73135058 -129.98043405 194.76082469 -136.33935547 194.79400635 C-142.82777121 194.82469042 -149.31622013 194.83839621 -155.8046875 194.85351562 C-168.53654601 194.8856934 -181.26826208 194.9363229 -194 195 C-192.80177612 195.92924286 -192.80177612 195.92924286 -191.5793457 196.8772583 C-188.45606673 199.44764446 -187.41446842 201.26856609 -186.48828125 205.13769531 C-185.80649157 214.60320865 -190.37277308 222.14612691 -194.67822266 230.25341797 C-195.99695682 232.74425203 -197.27178108 235.25416066 -198.54296875 237.76953125 C-207.04947024 254.30016227 -207.04947024 254.30016227 -214 258 C-219.49465386 259.41732514 -224.4696447 258.72490514 -229.5625 256.3125 C-233.47662572 252.59909868 -235.18201059 249.90063785 -235.640625 244.4921875 C-235.54478736 236.04944663 -231.09823085 228.96026385 -227.21191406 221.69165039 C-225.87534692 219.18814981 -224.57613397 216.66784712 -223.28125 214.14257812 C-222.43702351 212.52492949 -221.5907378 210.9083535 -220.7421875 209.29296875 C-220.35755341 208.54911423 -219.97291931 207.8052597 -219.57662964 207.03886414 C-216.96647922 202.19690263 -214.05578096 198.72286558 -210 195 C-211.8871875 194.87044922 -211.8871875 194.87044922 -213.8125 194.73828125 C-238.43826243 192.81571608 -260.24053086 184.1332313 -277.46484375 165.80859375 C-295.38780599 144.69324638 -300.5755 120.11871282 -299 93 C-298.3188536 87.44150898 -296.85164673 82.2869387 -295 77 C-294.649375 75.96359375 -294.29875 74.9271875 -293.9375 73.859375 C-288.27347382 58.83397222 -277.11875377 42.20133491 -263 34 C-262.34 34 -261.68 34 -261 34 C-262.24479084 37.24555054 -263.64988953 40.26347819 -265.3125 43.3125 C-267.60637303 47.83898535 -269.24431378 52.41927981 -270.75 57.25 C-270.96052002 57.92329346 -271.17104004 58.59658691 -271.38793945 59.2902832 C-277.65420768 80.04360954 -274.19056753 104.6144075 -264.25 123.75 C-251.53237749 145.45822967 -232.90700341 160.40994128 -208.5625 166.875 C-201.05294108 168.6432717 -193.41885323 169.14264223 -185.72631836 169.20532227 C-184.95447205 169.21522186 -184.18262573 169.22512146 -183.38739014 169.23532104 C-180.87157104 169.26655644 -178.35573315 169.2915409 -175.83984375 169.31640625 C-174.08150277 169.3370087 -172.32316637 169.35800596 -170.56483459 169.37937927 C-165.96346783 169.43426043 -161.36205892 169.48381774 -156.76062012 169.53222656 C-152.0545685 169.58269142 -147.34857719 169.63824634 -142.64257812 169.69335938 C-133.42843708 169.80052485 -124.2142434 169.90206012 -115 170 C-115.33990967 169.19393311 -115.67981934 168.38786621 -116.0300293 167.55737305 C-116.47773682 166.49043213 -116.92544434 165.42349121 -117.38671875 164.32421875 C-117.82975342 163.27065186 -118.27278809 162.21708496 -118.72924805 161.1315918 C-125.47965731 144.49614518 -124.37306434 128.22600452 -117.6796875 111.75 C-110.35086973 96.05111166 -97.8623029 83.77289491 -81.515625 77.70703125 C-75.11747504 75.70218109 -68.93289104 73.83682252 -62.1875 73.9375 C-61.39730469 73.94652344 -60.60710937 73.95554687 -59.79296875 73.96484375 C-59.20128906 73.97644531 -58.60960937 73.98804688 -58 74 C-57.99742187 73.25878906 -57.99484375 72.51757812 -57.9921875 71.75390625 C-57.22240745 50.79022944 -46.34537051 32.52493954 -31.8515625 17.8203125 C-23.58610168 10.15163586 -11.80858012 0 0 0 Z " fill="#5D6972" transform="translate(307,166)"/>
<path d="M0 0 C-0.18175781 0.64324219 -0.36351562 1.28648438 -0.55078125 1.94921875 C-10.85394266 38.98776311 -9.88167941 76.408545 8.80981445 110.63891602 C17.38785361 125.6744655 28.2115485 138.48605915 42 149 C42.76699219 149.59425781 43.53398437 150.18851563 44.32421875 150.80078125 C72.27897851 171.44648668 104.27878904 175.71320088 138 173 C137.44384669 178.06021179 135.74019658 182.14633097 133.4375 186.625 C133.07817383 187.32866699 132.71884766 188.03233398 132.34863281 188.75732422 C123.18840285 206.36176616 110.62193209 220.87062626 95 233 C94.02804687 233.75925781 93.05609375 234.51851562 92.0546875 235.30078125 C85.66815478 239.84049611 80.7790393 240.94792935 73 240 C72.90203125 239.28457031 72.8040625 238.56914062 72.703125 237.83203125 C69.08435712 213.71731082 58.24642501 193.12219108 39 178 C20.16013954 164.39343412 -2.93266201 158.69662879 -26 161 C-35.77537081 162.62201949 -45.11222187 165.63690892 -54 170 C-54.66 170 -55.32 170 -56 170 C-56.23952393 169.19502075 -56.23952393 169.19502075 -56.48388672 168.3737793 C-61.82020852 150.73770384 -68.45835057 133.82291813 -81 120 C-81.70769531 119.16339844 -82.41539062 118.32679687 -83.14453125 117.46484375 C-87.71873376 112.15364188 -92.30589887 108.05554501 -98.2265625 104.27734375 C-100.29396827 101.62250331 -100.22293375 101.02345786 -99.93359375 97.7890625 C-99.16631609 93.20551419 -97.94313504 88.82877194 -96.4375 84.4375 C-96.17356445 83.66374023 -95.90962891 82.88998047 -95.63769531 82.09277344 C-89.25356934 64.00318642 -79.23670739 48.82552889 -66 35 C-65.31679688 34.25363281 -64.63359375 33.50726563 -63.9296875 32.73828125 C-49.72652603 17.72276183 -21.73510346 -1.64528672 0 0 Z " fill="#F8C45F" transform="translate(366,8)"/>
<path d="M0 0 C17.92600597 8.76382514 30.25647357 27.68637812 39.125 45 C43.71074247 53.57936984 50.92622449 57.97540816 60 61 C62.06069306 61.09584619 64.12458484 61.12983685 66.1875 61.125 C67.81751953 61.12886719 67.81751953 61.12886719 69.48046875 61.1328125 C72.67091973 61.01241812 75.76015506 60.6583453 78.92211914 60.23583984 C102.65418964 57.54224566 125.98508299 64.53731108 144.62548828 79.28613281 C158.86690713 91.01538453 167.15369466 105.55925276 174.0625 122.4375 C178.35085708 132.46979229 182.94606602 136.39468473 192.5859375 141.51953125 C193.38257813 142.00808594 194.17921875 142.49664062 195 143 C195 143.66 195 144.32 195 145 C192.74068862 146.77264509 190.48291055 148.4313427 188.125 150.0625 C187.47402344 150.52205078 186.82304687 150.98160156 186.15234375 151.45507812 C181.40017016 154.79139794 179.14313204 156.1295713 173.375 156.0625 C172.37210938 156.05347656 171.36921875 156.04445312 170.3359375 156.03515625 C169.17964844 156.01775391 169.17964844 156.01775391 168 156 C167.90203125 155.28457031 167.8040625 154.56914062 167.703125 153.83203125 C164.08435712 129.71731082 153.24642501 109.12219108 134 94 C115.16013954 80.39343412 92.06733799 74.69662879 69 77 C59.22462919 78.62201949 49.88777813 81.63690892 41 86 C40.34 86 39.68 86 39 86 C38.76047607 85.19502075 38.76047607 85.19502075 38.51611328 84.3737793 C33.17979148 66.73770384 26.54164943 49.82291813 14 36 C13.29230469 35.16339844 12.58460938 34.32679687 11.85546875 33.46484375 C7.98694699 28.97302252 4.22530526 25.35845553 -0.625 21.9375 C-4.84080285 18.68904416 -4.84080285 18.68904416 -5.51171875 15.78515625 C-5.29884676 13.34338932 -4.79275268 11.31789615 -4 9 C-3.75636719 8.236875 -3.51273437 7.47375 -3.26171875 6.6875 C-1.43150685 1.43150685 -1.43150685 1.43150685 0 0 Z " fill="#F9AE42" transform="translate(271,92)"/>
<path d="M0 0 C4.45498552 2.1102563 7.22604963 4.36801849 9 9 C11.13967859 19.20942859 5.94403093 27.54957545 1.32177734 36.25341797 C0.00304318 38.74425203 -1.27178108 41.25416066 -2.54296875 43.76953125 C-11.04947024 60.30016227 -11.04947024 60.30016227 -18 64 C-23.49465386 65.41732514 -28.4696447 64.72490514 -33.5625 62.3125 C-37.47982972 58.59605898 -39.18156429 55.90165957 -39.6328125 50.48828125 C-39.53454055 42.07357294 -35.17690942 35.00591168 -31.32177734 27.74658203 C-30.00304318 25.25574797 -28.72821892 22.74583934 -27.45703125 20.23046875 C-15.62200829 -2.76845717 -15.62200829 -2.76845717 0 0 Z " fill="#61B4E8" transform="translate(351,440)"/>
<path d="M0 0 C4.45498552 2.1102563 7.22604963 4.36801849 9 9 C11.13967859 19.20942859 5.94403093 27.54957545 1.32177734 36.25341797 C0.00304318 38.74425203 -1.27178108 41.25416066 -2.54296875 43.76953125 C-11.04947024 60.30016227 -11.04947024 60.30016227 -18 64 C-23.49465386 65.41732514 -28.4696447 64.72490514 -33.5625 62.3125 C-37.47982972 58.59605898 -39.18156429 55.90165957 -39.6328125 50.48828125 C-39.53454055 42.07357294 -35.17690942 35.00591168 -31.32177734 27.74658203 C-30.00304318 25.25574797 -28.72821892 22.74583934 -27.45703125 20.23046875 C-15.62200829 -2.76845717 -15.62200829 -2.76845717 0 0 Z " fill="#61B4E8" transform="translate(191,440)"/>
<path d="M0 0 C4.45498552 2.1102563 7.22604963 4.36801849 9 9 C11.13967859 19.20942859 5.94403093 27.54957545 1.32177734 36.25341797 C0.00304318 38.74425203 -1.27178108 41.25416066 -2.54296875 43.76953125 C-11.04947024 60.30016227 -11.04947024 60.30016227 -18 64 C-23.49465386 65.41732514 -28.4696447 64.72490514 -33.5625 62.3125 C-37.47982972 58.59605898 -39.18156429 55.90165957 -39.6328125 50.48828125 C-39.53454055 42.07357294 -35.17690942 35.00591168 -31.32177734 27.74658203 C-30.00304318 25.25574797 -28.72821892 22.74583934 -27.45703125 20.23046875 C-15.62200829 -2.76845717 -15.62200829 -2.76845717 0 0 Z " fill="#61B4E8" transform="translate(111,360)"/>
<path d="M0 0 C4.81852225 2.36380337 7.67076821 5.16236475 10 10 C10.96109835 17.1917784 9.46873962 22.52422389 6.125 28.82421875 C5.72224854 29.61472122 5.31949707 30.40522369 4.90454102 31.21968079 C4.05349572 32.87755364 3.19240974 34.53030751 2.32177734 36.17797852 C1.00474778 38.67848589 -0.27075293 41.19715567 -1.54296875 43.72070312 C-10.05892943 60.31360751 -10.05892943 60.31360751 -17 64 C-22.49465386 65.41732514 -27.4696447 64.72490514 -32.5625 62.3125 C-36.60775337 58.47469552 -38.18064317 55.81929301 -38.515625 50.23046875 C-38.42591756 42.32386289 -34.58286121 36.10869753 -30.875 29.375 C-30.20115458 28.10521036 -29.5292666 26.83437996 -28.859375 25.5625 C-14.22115765 -1.97859585 -14.22115765 -1.97859585 0 0 Z " fill="#61B4E7" transform="translate(270,360)"/>
<path d="M0 0 C3.5343637 3.12339117 6.33152263 5.71126597 6.98242188 10.5818634 C7.11149571 17.06504021 5.83211462 21.50991313 2.8125 27.19921875 C2.40974854 27.98972122 2.00699707 28.78022369 1.59204102 29.59468079 C0.74099572 31.25255364 -0.12009026 32.90530751 -0.99072266 34.55297852 C-2.30775222 37.05348589 -3.58325293 39.57215567 -4.85546875 42.09570312 C-13.37142943 58.68860751 -13.37142943 58.68860751 -20.3125 62.375 C-25.80715386 63.79232514 -30.7821447 63.09990514 -35.875 60.6875 C-39.9599173 56.81206564 -41.49200254 54.16990851 -41.7890625 48.52734375 C-41.70165547 41.03557654 -38.38480423 35.42037659 -34.8125 29 C-34.16262818 27.80078102 -33.51411503 26.60082478 -32.86694336 25.40014648 C-31.04606501 22.041137 -29.18144311 18.7075158 -27.3125 15.375 C-26.87180176 14.5691748 -26.43110352 13.76334961 -25.97705078 12.93310547 C-20.21152986 2.40660532 -12.70576606 -6.23301731 0 0 Z " fill="#61B4E7" transform="translate(433.3125,361.625)"/>
</svg>
